name D:\school\WTK\thesis\model\3dpredictsim\Results\Final\Fal_s1_bCst_PF_None_ls150_MT_k800_MTP_T17_ig24.mot
datacolumns 128
datarows 4
range 1.12159043 1.15523814
endheader
time	pelvis_tilt	pelvis_list	pelvis_rotation	pelvis_tx	pelvis_ty	pelvis_tz	hip_flexion_l	hip_adduction_l	hip_rotation_l	hip_flexion_r	hip_adduction_r	hip_rotation_r	knee_angle_l	knee_angle_r	ankle_angle_l	ankle_angle_r	subtalar_angle_l	subtalar_angle_r	mtj_angle_l	mtj_angle_r	mtp_angle_l	mtp_angle_r	lumbar_extension	lumbar_bending	lumbar_rotation	arm_flex_l	arm_add_l	arm_rot_l	arm_flex_r	arm_add_r	arm_rot_r	elbow_flex_l	elbow_flex_r	pro_sup_l	pro_sup_r	glut_med1_l/activation	glut_med2_l/activation	glut_med3_l/activation	glut_min1_l/activation	glut_min2_l/activation	glut_min3_l/activation	semimem_l/activation	semiten_l/activation	bifemlh_l/activation	bifemsh_l/activation	sar_l/activation	add_long_l/activation	add_brev_l/activation	add_mag1_l/activation	add_mag2_l/activation	add_mag3_l/activation	tfl_l/activation	pect_l/activation	grac_l/activation	glut_max1_l/activation	glut_max2_l/activation	glut_max3_l/activation	iliacus_l/activation	psoas_l/activation	quad_fem_l/activation	gem_l/activation	peri_l/activation	rect_fem_l/activation	vas_med_l/activation	vas_int_l/activation	vas_lat_l/activation	med_gas_l/activation	lat_gas_l/activation	soleus_l/activation	tib_post_l/activation	flex_dig_l/activation	flex_hal_l/activation	tib_ant_l/activation	per_brev_l/activation	per_long_l/activation	per_tert_l/activation	ext_dig_l/activation	ext_hal_l/activation	ercspn_l/activation	intobl_l/activation	extobl_l/activation	glut_med1_r/activation	glut_med2_r/activation	glut_med3_r/activation	glut_min1_r/activation	glut_min2_r/activation	glut_min3_r/activation	semimem_r/activation	semiten_r/activation	bifemlh_r/activation	bifemsh_r/activation	sar_r/activation	add_long_r/activation	add_brev_r/activation	add_mag1_r/activation	add_mag2_r/activation	add_mag3_r/activation	tfl_r/activation	pect_r/activation	grac_r/activation	glut_max1_r/activation	glut_max2_r/activation	glut_max3_r/activation	iliacus_r/activation	psoas_r/activation	quad_fem_r/activation	gem_r/activation	peri_r/activation	rect_fem_r/activation	vas_med_r/activation	vas_int_r/activation	vas_lat_r/activation	med_gas_r/activation	lat_gas_r/activation	soleus_r/activation	tib_post_r/activation	flex_dig_r/activation	flex_hal_r/activation	tib_ant_r/activation	per_brev_r/activation	per_long_r/activation	per_tert_r/activation	ext_dig_r/activation	ext_hal_r/activation	ercspn_r/activation	intobl_r/activation	extobl_r/activation	
          1.12159043	         -2.92268013	         -2.29200604	          5.70598850	          1.40198804	          0.91748549	         -0.00199467	        -16.94557342	         -1.60529894	          6.17154619	         28.45651421	          4.01825326	         -1.49520498	         -9.86838388	        -12.37369591	         -2.85439713	          5.16965385	         10.34041688	         -5.68453294	          2.83032453	          0.04273772	         22.56187584	          0.29452323	         -1.63563131	          0.71744892	         -2.01325518	          4.30133127	        -13.46141375	         15.86269017	         -7.14503198	        -13.47191913	          4.95278750	         36.92731087	         17.04392203	         86.51662706	         86.51662706	          0.33733765	          0.07747596	          0.05894098	          0.22696041	          0.15094835	          0.08361029	          0.05000385	          0.05000162	          0.05000139	          0.05000033	          0.08356139	          0.14010984	          0.11157332	          0.05935563	          0.05934852	          0.05934631	          0.24202189	          0.08186876	          0.05012952	          0.05004471	          0.05006853	          0.05934131	          0.30464601	          0.55501286	          0.05934537	          0.05000300	          0.05000042	          0.16326682	          0.13197368	          0.14150914	          0.11640058	          0.21592184	          0.29703098	          0.24500417	          0.22918672	          0.21683271	          0.28373690	          0.05000004	          0.05000161	          0.14737262	          0.05000023	          0.05000007	          0.05000030	          0.05269084	          0.05934691	          0.05934662	          0.23535690	          0.05000022	          0.12606259	          0.05000097	          0.05000037	          0.20920381	          0.10372317	          0.08658736	          0.16368630	          0.05000045	          0.05000190	          0.09885848	          0.17773150	          0.19150126	          0.14508651	          0.12635976	          0.05000102	          0.05935149	          0.09884117	          0.05000063	          0.05000080	          0.10307877	          0.05934623	          0.05001776	          0.45798544	          0.12597731	          0.15169760	          0.05934762	          0.15861468	          0.15798782	          0.13706933	          0.05465758	          0.05739863	          0.05488343	          0.05921825	          0.05000287	          0.05000260	          0.45691051	          0.29074930	          0.16342787	          0.23697235	          0.53519474	          0.13438688	          0.05000005	          0.12022541	          0.07981442	
          1.13280633	         -2.91491298	         -2.40134084	          5.94562516	          1.41919052	          0.91656795	         -0.00178601	        -16.70601688	         -1.91468566	          5.93180919	         27.66959612	          4.28136454	         -1.23464913	        -11.94808051	        -12.82973653	         -3.72802958	          4.61763601	         11.19429606	         -6.08750518	          2.33703713	          0.08212405	         23.51635310	          0.28376475	         -1.41935753	          0.94893741	         -2.06428293	          3.95280879	        -13.46738304	         16.14596610	         -8.02346831	        -13.47753635	          4.83648233	         38.00402116	         16.71336143	         86.51662706	         86.51662706	          0.28422043	          0.06527424	          0.05000031	          0.33513425	          0.12717548	          0.07044251	          0.05000709	          0.05000048	          0.05000039	          0.05000077	          0.07040425	          0.12141742	          0.09400182	          0.05000812	          0.05000358	          0.05000143	          0.24155336	          0.06897970	          0.05000163	          0.05000361	          0.05000209	          0.05000150	          0.25666712	          0.51626032	          0.05000032	          0.05000222	          0.05000175	          0.13980334	          0.11119211	          0.11956342	          0.13980284	          0.18191598	          0.25025113	          0.20641809	          0.19309187	          0.18268368	          0.23905098	          0.05000052	          0.09127408	          0.14286382	          0.05000096	          0.07715022	          0.05000096	          0.06497959	          0.05000028	          0.05000011	          0.31633712	          0.26207635	          0.28177009	          0.14320868	          0.21200793	          0.17625722	          0.08738774	          0.07295159	          0.13790716	          0.07720214	          0.05000519	          0.08328919	          0.14974036	          0.16134175	          0.12223722	          0.14336515	          0.05000138	          0.05000488	          0.08327510	          0.19667494	          0.15057966	          0.11813371	          0.05000019	          0.05000023	          0.38585675	          0.10613731	          0.12780687	          0.05000098	          0.13363571	          0.13318890	          0.11548355	          0.05000032	          0.05000077	          0.05000011	          0.05000018	          0.05000044	          0.05000059	          0.58685381	          0.34061602	          0.18507574	          0.52205738	          0.55078444	          0.26331024	          0.07177658	          0.10173552	          0.06724434	
          1.14402224	         -2.90540935	         -2.49755410	          6.14943306	          1.43636227	          0.91574332	         -0.00154289	        -16.35602916	         -2.20370374	          5.70386081	         26.88954557	          4.53883141	         -0.98728925	        -14.17224141	        -13.30834766	         -4.72521703	          4.09692872	         11.98574456	         -6.50331790	          1.78637280	          0.07880207	         24.19554853	          0.24337409	         -1.21511338	          1.17316943	         -2.10754983	          3.58987958	        -13.48119552	         16.40705851	         -8.85447136	        -13.48137957	          4.77814399	         39.01069987	         16.38970163	         86.51662706	         86.51662706	          0.27135898	          0.05499420	          0.05000017	          0.28235528	          0.10714660	          0.05934853	          0.05000261	          0.05000040	          0.05000039	          0.05000025	          0.05931726	          0.16417523	          0.13358115	          0.05000213	          0.05001644	          0.07473689	          0.20351271	          0.05935284	          0.05000126	          0.05000454	          0.05000296	          0.05000226	          0.21624433	          0.47048149	          0.05000032	          0.05000106	          0.05000028	          0.11778555	          0.11778597	          0.11778573	          0.11778611	          0.15326576	          0.21083872	          0.17390899	          0.16268163	          0.15391282	          0.20140269	          0.10695732	          0.13435764	          0.14485934	          0.05000434	          0.15679219	          0.05002295	          0.09173462	          0.05000005	          0.05000011	          0.40473296	          0.36684344	          0.40730465	          0.16906656	          0.17862036	          0.27515522	          0.08155878	          0.08965154	          0.11622246	          0.06504384	          0.05000075	          0.07017233	          0.17316629	          0.21738385	          0.20285069	          0.16847207	          0.05000071	          0.05915662	          0.11192783	          0.25460831	          0.19668928	          0.16553478	          0.05000035	          0.05000031	          0.32508773	          0.08942199	          0.20802518	          0.05000017	          0.19275289	          0.19723484	          0.16484587	          0.05000010	          0.05000020	          0.05000003	          0.05000006	          0.05000090	          0.05000064	          0.65135995	          0.28697196	          0.15592792	          0.50182679	          0.58332168	          0.31578443	          0.08911105	          0.08571313	          0.05665396	
          1.15523814	         -2.89431972	         -2.58686414	          6.32087392	          1.45335846	          0.91506947	         -0.00127287	        -15.87371272	         -2.47236086	          5.48116684	         26.15704555	          4.80377746	         -0.73909495	        -16.56341521	        -13.85454706	         -5.78471173	          3.60196216	         12.69440062	         -6.91418774	          1.23471426	          0.05923364	         24.31326905	          0.23329754	         -1.02952662	          1.39599081	         -2.14287860	          3.24536051	        -13.49639973	         16.66701409	         -9.61008797	        -13.48461231	          4.77848490	         39.91197703	         16.05491555	         86.51662706	         86.51662706	          0.22862272	          0.05000032	          0.05000017	          0.23788767	          0.09027214	          0.05000195	          0.05005859	          0.05000317	          0.05000423	          0.05000043	          0.05000221	          0.17709187	          0.18831948	          0.14467664	          0.05005404	          0.11778309	          0.21185662	          0.05001530	          0.05000198	          0.05000457	          0.05000311	          0.05000211	          0.18218776	          0.42365110	          0.05000029	          0.05000112	          0.05000034	          0.09923536	          0.09923584	          0.09923564	          0.09923591	          0.12912771	          0.17763344	          0.14651979	          0.13706093	          0.12967343	          0.16968392	          0.17079542	          0.11967623	          0.12204682	          0.11724900	          0.21108183	          0.09923478	          0.11378991	          0.05000005	          0.05000009	          0.48246192	          0.45880741	          0.48230071	          0.19260064	          0.25158579	          0.29823315	          0.07292940	          0.09783343	          0.09967128	          0.05480442	          0.05000083	          0.05912103	          0.14589430	          0.18597562	          0.23575015	          0.19574247	          0.05000053	          0.05000384	          0.09430244	          0.31303590	          0.24180151	          0.20730593	          0.05000016	          0.05000016	          0.27388934	          0.07533925	          0.17527524	          0.05000012	          0.27765538	          0.28140209	          0.23488506	          0.05000009	          0.05000023	          0.05000003	          0.10959282	          0.05000956	          0.05000294	          0.71530201	          0.24177640	          0.13137068	          0.42279370	          0.57257620	          0.33872043	          0.09845810	          0.07221411	          0.05000010	
